<svg width="46" height="45" viewBox="0 0 46 45" fill="none" xmlns="http://www.w3.org/2000/svg">
<g clip-path="url(#clip0_97_1918)">
<path d="M22.6342 -0.00012207C10.1339 -0.00012207 0.000244141 10.0745 0.000244141 22.5021C0.000244141 34.369 9.24028 44.0894 20.9576 44.9431V32.04C20.9576 30.9018 20.192 29.9428 19.1453 29.6403H19.1458C11.5604 28.0445 5.86839 21.351 5.86839 13.3347C15.1279 13.3347 22.6342 20.7973 22.6342 30.0029C22.6342 20.7973 30.1406 13.3347 39.4001 13.3347C39.4001 21.3505 33.7076 28.0445 26.1227 29.6403C25.076 29.9428 24.3109 30.9018 24.3109 32.04V44.9431C36.0282 44.0894 45.2682 34.369 45.2682 22.5021C45.2682 10.0745 35.1346 -0.00012207 22.6342 -0.00012207Z" fill="white"/>
</g>
<defs>
<clipPath id="clip0_97_1918">
<rect width="45.3543" height="45" fill="white"/>
</clipPath>
</defs>
</svg>
