<svg width="76" height="33" viewBox="0 0 76 33" fill="none" xmlns="http://www.w3.org/2000/svg">
<g clip-path="url(#clip0_91_30)">
<path d="M73.5041 27.6758C72.3628 27.6758 71.3468 26.8881 71.3468 25.5313C71.3468 24.1745 72.3628 23.3868 73.5041 23.3868C74.6455 23.3868 75.6551 24.1745 75.6551 25.5313C75.6551 26.8881 74.6391 27.6758 73.5041 27.6758ZM73.5041 23.882C72.6521 23.882 71.9641 24.5411 71.9641 25.5281C71.9641 26.5152 72.6457 27.1743 73.4913 27.1743H73.5041V27.1807C74.3336 27.1807 75.0378 26.5152 75.0378 25.5281C75.0378 24.5411 74.3336 23.882 73.5041 23.882ZM73.1473 26.6823H72.6521V24.3707H73.5138C74.1118 24.3707 74.4623 24.5411 74.4623 25.0684C74.4623 25.4927 74.2115 25.6471 73.906 25.6696L74.4976 26.6791H73.9125L73.3788 25.7082H73.1473V26.6791V26.6823ZM73.5845 25.3191C73.8064 25.3191 73.935 25.2741 73.935 25.0169C73.935 24.779 73.681 24.7597 73.4913 24.7597H73.1441V25.3159H73.5813L73.5845 25.3191Z" fill="white"/>
<path d="M1.8294 32.746H0.916309H0V23.3835H1.43394H2.86467L4.5719 30.804L6.25341 23.3835H7.66806H9.08272V32.746H8.16962H7.25331V24.8721L5.50107 32.746H4.53975H3.57843L1.8294 24.7017V32.746Z" fill="white"/>
<path d="M13.7994 23.3835H16.066L19.3776 32.746H17.3038L16.6705 30.8426H13.121L12.5069 32.746H10.4878L13.7994 23.3835ZM13.6643 29.2286H16.1496L14.9054 25.4637L13.6611 29.2286H13.6643Z" fill="white"/>
<path d="M22.9207 25.0458H20.3711V24.2163V23.3835H27.4251V24.2098V25.0458H24.8755V32.746H23.9013H22.9207V25.0458Z" fill="white"/>
<path d="M31.1482 25.0458H28.5986V24.2163V23.3835H35.6526V24.2098V25.0458H33.103V32.746H32.1288H31.1482V25.0458Z" fill="white"/>
<path d="M37.3566 32.746V23.3835H44.2466V24.2098V25.0458H39.3114V27.0327H43.8897V27.8365V28.6435H39.3114V31.0838H44.4652V31.91V32.746H37.3566Z" fill="white"/>
<path d="M46.3171 32.746V23.3835H47.2913H48.2719V31.0838H52.9274V31.91V32.746H46.3171Z" fill="white"/>
<path d="M59.618 26.1936C59.5826 25.7467 59.3897 25.393 59.0328 25.1326C58.676 24.8722 58.213 24.7404 57.6375 24.7404C57.1423 24.7404 56.7533 24.8497 56.4736 25.0683C56.1939 25.2869 56.0524 25.5924 56.0524 25.9814C56.0524 26.2611 56.2003 26.4798 56.4929 26.6309C56.7823 26.7852 57.3963 26.9652 58.3319 27.171C59.6951 27.4764 60.605 27.8301 61.0648 28.2288C61.5246 28.6242 61.7528 29.2576 61.7528 30.1321C61.7528 31.0066 61.4056 31.7075 60.7143 32.2252C60.0231 32.7396 59.0875 33 57.9075 33C56.7276 33 55.7984 32.7267 55.1329 32.177C54.4674 31.6304 54.1105 30.8491 54.0623 29.8396H55.9463C55.9688 30.3347 56.1489 30.7173 56.4865 30.9874C56.8273 31.2542 57.2999 31.3892 57.9075 31.3892C58.5152 31.3892 59.02 31.2896 59.3704 31.087C59.7209 30.8845 59.8945 30.608 59.8945 30.2511C59.8945 29.8942 59.7691 29.6402 59.5151 29.473C59.2675 29.3058 58.7435 29.1354 57.9365 28.9554C56.4511 28.6242 55.4576 28.2674 54.9593 27.8783C54.4609 27.4957 54.2134 26.9009 54.2134 26.0875C54.2134 25.1776 54.5413 24.4574 55.2004 23.9237C55.8595 23.39 56.7469 23.1232 57.869 23.1232C58.9171 23.1232 59.7691 23.3997 60.4282 23.9527C61.0841 24.5057 61.4506 25.2484 61.5246 26.1872H59.6212L59.618 26.1936Z" fill="white"/>
<path d="M66.0837 23.3835H68.3503L71.6619 32.746H69.5882L68.9548 30.8426H65.4053L64.7912 32.746H62.7721L66.0837 23.3835ZM65.9486 29.2286H68.4339L67.1897 25.4637L65.9454 29.2286H65.9486Z" fill="white"/>
<path d="M43.7386 12.7704C43.6036 11.9859 43.1052 11.031 42.5522 10.4491C42.1664 10.044 41.6681 9.68712 41.2469 9.32702C40.7325 8.88655 40.4206 8.43 40.5589 7.74197C40.7711 6.67455 40.9479 5.60391 41.1762 4.53971L41.218 4.34358C41.4912 3.06397 42.041 0.993427 40.5556 0.199292C39.9898 -0.102929 39.2407 -0.0354116 38.6877 0.263595C37.5238 0.890543 37.0672 2.1991 36.5625 3.35333C36.2635 4.04136 35.9966 4.71654 35.7651 5.35956C35.4661 6.20514 35.2089 7.06679 34.9324 7.9188C34.9099 7.98632 34.8874 8.05705 34.8359 8.10849C34.7845 8.15993 34.7009 8.18244 34.643 8.14064C34.6012 8.11171 34.5852 8.06026 34.5691 8.01204C34.3312 7.16968 34.4308 6.218 34.4308 5.35635C34.4308 4.95767 34.4308 4.55257 34.4373 4.16032C34.4437 3.38548 34.4373 2.60099 34.3054 1.83579C34.2251 1.37603 34.0354 1.0095 33.6978 0.687991C32.8811 -0.0868535 31.6144 0.167141 30.9489 0.896974C30.4762 1.41461 30.3316 2.15409 30.0872 2.80033C29.875 3.35654 29.7078 3.87739 29.5728 4.39503L29.4956 4.6876C29.3638 5.19238 29.2288 5.71323 29.0841 6.22765C28.9233 6.79994 28.7433 7.44618 28.6018 8.09242C28.4507 8.78688 28.3639 9.49099 28.2932 10.1469C28.2224 10.8156 28.171 11.4619 28.1517 12.0245C28.0488 15.0017 29.7207 17.487 32.5564 18.4162C33.0065 18.5641 33.4824 18.6862 33.9582 18.6862C34.0032 18.6862 34.0482 18.6862 34.0932 18.683C34.4791 18.6605 34.8938 18.3326 34.8745 17.8985C34.8681 17.7603 34.8327 17.5063 34.6559 17.3455C34.5016 17.2073 34.344 17.1462 34.0322 17.1076C33.4502 17.0369 32.9004 16.8215 32.4793 16.6382C31.6369 16.2749 31.0453 15.709 30.5309 14.9438C29.576 13.5292 29.6982 11.8445 29.8525 10.2465L29.8654 10.1244C29.8879 9.90574 29.9104 9.68069 29.9393 9.45884V9.45241C30.2255 7.5362 30.7977 5.65535 31.3893 3.8163C31.534 3.36619 31.6948 2.22482 32.3346 2.21517H32.341C32.5178 2.21517 32.685 2.30841 32.7783 2.45952C32.9037 2.66529 32.8908 2.9225 32.8779 3.13148V3.14756C32.8747 3.18614 32.8715 3.22472 32.8715 3.26009C32.8715 3.54302 32.8715 3.82595 32.8651 4.10888V4.12174C32.8651 4.32751 32.8619 4.53328 32.8619 4.73904V4.8355C32.8554 5.74859 32.849 6.69705 32.939 7.61015C32.968 7.90272 33.0001 8.16315 33.0451 8.41071C33.0741 8.5779 33.103 8.70007 33.1416 8.8126C33.2605 9.16948 33.5499 9.79 34.1736 9.93468C34.6591 10.0472 35.2089 9.88324 35.5722 9.56816C36.077 9.1309 36.3438 8.45572 36.5914 7.84807C36.72 7.52977 36.8165 7.20504 36.9193 6.86102C36.9772 6.66812 37.0351 6.46556 37.1026 6.26944C37.2859 5.71966 37.4884 5.16665 37.7006 4.62973C37.736 4.53649 37.7746 4.44647 37.8131 4.35323L37.8196 4.34037C38.0671 3.76165 38.4079 3.00288 38.8484 2.29234C39.0895 1.90331 39.3725 1.78113 39.694 1.92581C39.7647 1.95796 39.8226 1.99976 39.8676 2.05442C40.0091 2.2216 39.9801 2.44023 39.9608 2.59777V2.61063C39.9576 2.62671 39.9544 2.64278 39.9544 2.65886C39.9416 2.83248 39.9062 2.99966 39.8708 3.16042V3.17006C39.858 3.21829 39.8483 3.26652 39.8387 3.31474C39.784 3.59125 39.7229 3.87418 39.6683 4.14425V4.16032C39.6361 4.29214 39.6072 4.42396 39.5815 4.55257C39.5172 4.86765 39.44 5.24382 39.3821 5.62642C39.3371 5.91578 39.2985 6.1537 39.2439 6.40769L39.2117 6.55559C39.0831 7.12466 38.9609 7.66159 38.9191 8.22102C38.8966 8.52003 38.9191 8.83511 38.9834 9.15662C39.051 9.4717 39.2085 9.77714 39.4721 10.0858C39.9576 10.6581 40.6842 10.9024 41.218 11.4169C42.2693 12.4296 42.4654 13.9021 41.7388 15.32C41.4334 15.9148 40.8643 16.3392 40.2663 16.6253L40.247 16.6318C39.7358 16.8408 39.2021 16.9951 38.6555 17.0819C38.0929 17.1687 36.9193 17.0176 36.9611 17.9371C36.9676 18.0754 37.0029 18.3294 37.1798 18.4901C37.4852 18.7666 37.9996 18.7538 38.5108 18.7023C39.366 18.6155 40.292 18.5062 41.0604 18.1204C41.7742 17.7635 42.5908 17.1301 43.0152 16.4292C43.6968 15.3039 43.9669 14.0725 43.7418 12.7768" fill="white"/>
<path d="M38.0285 13.0374C38.0285 12.6902 37.8935 12.3654 37.6491 12.1243C37.4112 11.8896 37.0929 11.761 36.7553 11.761C36.7457 11.761 36.7393 11.761 36.7296 11.761C36.0062 11.7738 35.4178 12.3751 35.4178 13.0953C35.4178 13.4425 35.5529 13.7672 35.7972 14.0084C36.0351 14.2431 36.3534 14.3717 36.691 14.3717C36.7007 14.3717 36.7103 14.3717 36.7168 14.3717C37.4402 14.3588 38.0285 13.7576 38.0285 13.0374Z" fill="white"/>
</g>
<defs>
<clipPath id="clip0_91_30">
<rect width="75.6582" height="33" fill="white"/>
</clipPath>
</defs>
</svg>
