<svg width="100" height="50" viewBox="0 0 100 50" fill="none" xmlns="http://www.w3.org/2000/svg">
<path d="M43.7931 23.5747C44.2034 23.9916 44.448 24.4073 44.5019 25.0274C44.5218 25.8021 44.4323 26.5693 44.3495 27.3372C44.2109 28.6502 44.1703 30.1431 44.938 31.2425C45.1996 31.5502 45.466 31.6821 45.8448 31.7122C46.5111 31.6772 47.0049 31.2023 47.4502 30.689C47.5175 30.5997 47.5175 30.5997 47.5862 30.5085C47.6346 30.4451 47.6829 30.3817 47.7328 30.3165C47.9237 29.9174 47.9557 29.5192 48.0043 29.0736C48.0155 28.9771 48.0268 28.8806 48.0383 28.7812C48.1909 27.4367 48.2863 26.0815 48.3625 24.7291C48.3681 24.6334 48.3736 24.5377 48.3793 24.439C48.3861 24.3128 48.3861 24.3128 48.393 24.184C48.4377 23.7014 48.591 23.3098 48.8965 22.9584C49.2656 22.6698 49.6195 22.5857 50.069 22.6502C50.54 22.8195 50.9461 23.0598 51.1896 23.5555C51.4685 24.1632 51.3599 24.7734 51.2543 25.4141C51.2358 25.5325 51.2358 25.5325 51.217 25.6533C51.1398 26.1433 51.0548 26.6313 50.9655 27.1186C51.3825 26.6247 51.7631 26.1228 52.1236 25.5754C52.3697 25.2056 52.6294 24.8502 52.8965 24.4992C52.9259 24.4607 52.9552 24.4221 52.9854 24.3823C53.6213 23.5544 54.3537 22.7314 55.3701 22.6213C55.903 22.5946 56.3686 22.63 56.8276 22.9584C56.8747 22.9893 56.9218 23.0202 56.9704 23.052C57.6447 23.5461 58.0011 24.4362 58.1735 25.2924C58.2085 25.5111 58.2257 25.7245 58.2389 25.9462C58.247 26.072 58.247 26.072 58.2552 26.2005C58.2661 26.376 58.2767 26.5515 58.287 26.7271C58.2952 26.853 58.2952 26.853 58.3036 26.9814C58.3105 27.0957 58.3105 27.0957 58.3176 27.2124C58.3456 27.4329 58.4012 27.6095 58.4828 27.812C58.7395 27.7137 58.8938 27.6101 59.076 27.3862C59.1207 27.3319 59.1655 27.2776 59.2117 27.2217C59.2584 27.1639 59.3052 27.106 59.3534 27.0464C59.4524 26.9268 59.5515 26.8072 59.6506 26.6877C59.6987 26.6294 59.7468 26.5711 59.7963 26.511C60.5966 25.544 61.591 24.3752 62.8276 24.1911C63.3645 24.1872 63.8235 24.2414 64.2759 24.5763C64.3356 24.6176 64.3953 24.6589 64.4569 24.7015C65.3174 25.6627 65.3578 27.1545 65.4569 28.4332C65.4783 28.6973 65.5001 28.9614 65.5221 29.2255C65.53 29.3208 65.53 29.3208 65.538 29.418C65.6413 31.0253 65.6413 31.0253 66.2759 32.4345C66.4961 32.6175 66.69 32.7284 66.9655 32.7427C67.412 32.6014 67.7657 32.3546 68.1379 32.0493C68.2323 31.9922 68.2323 31.9922 68.3287 31.934C68.5786 31.6211 68.5067 31.2863 68.4871 30.884C68.4384 28.7811 69.1652 26.9776 70.4512 25.4568C71.7736 23.9422 73.7966 22.6986 75.7241 22.6502C75.7973 22.6472 75.8705 22.6443 75.9458 22.6412C77.1298 22.6149 78.3992 22.8038 79.3152 23.7171C79.7884 24.2733 79.8772 24.8077 79.8711 25.5557C79.8564 25.9662 79.8073 26.3699 79.7586 26.7768C79.5698 28.5036 79.5071 30.1691 80.4977 31.6341C80.903 32.199 81.3569 32.6315 81.931 32.9738C81.988 33.0092 82.045 33.0445 82.1037 33.0809C82.9796 33.5769 83.9742 33.6984 84.9415 33.7619C85.2749 33.787 85.5238 33.8077 85.7931 34.0524C85.9132 34.3208 85.8922 34.6064 85.8621 34.8998C85.7074 35.2981 85.5013 35.4395 85.1589 35.604C84.5652 35.8073 83.994 35.8517 83.375 35.8484C83.2522 35.8479 83.2522 35.8479 83.1269 35.8474C81.467 35.8238 80.0261 35.2925 78.8276 33.9753C78.5255 33.6139 78.2456 33.2313 78 32.8197C77.9421 32.8897 77.9421 32.8897 77.8831 32.9612C76.7453 34.2894 75.1215 35.3525 73.4452 35.4515C73.2034 35.4551 72.9616 35.4573 72.7198 35.4584C72.6371 35.46 72.5544 35.4616 72.4691 35.4632C71.2991 35.4688 70.3018 35.1254 69.4483 34.2065C69.4483 34.1556 69.4483 34.1048 69.4483 34.0524C69.3969 34.0879 69.3969 34.0879 69.3444 34.1241C68.1638 34.9318 67.0106 35.5844 65.5849 35.2688C64.696 35.0059 64.0142 34.5393 63.5172 33.6672C63.0755 32.7994 63.0002 31.7713 62.8613 30.8014C62.8376 30.6369 62.8136 30.4725 62.7893 30.3081C62.7664 30.1523 62.7442 29.9963 62.7229 29.8401C62.7125 29.7696 62.7022 29.6991 62.6915 29.6264C62.6828 29.5642 62.6741 29.5019 62.6651 29.4378C62.6139 29.2511 62.5457 29.1695 62.4138 29.0447C61.8931 29.207 61.62 29.5313 61.3017 30.0029C61.0478 30.3719 60.7887 30.7332 60.5172 31.0863C60.2564 31.4264 60.0046 31.7727 59.7586 32.1263C59.4794 32.5275 59.1921 32.919 58.8962 33.305C58.6889 33.5757 58.4879 33.8511 58.2888 34.1294C57.8755 34.6936 57.4728 35.0751 56.806 35.1984C56.3585 35.2394 55.9534 35.1161 55.5991 34.8084C55.1822 34.2096 55.0208 33.7929 55.0215 33.0289C55.0216 32.9329 55.0216 32.9329 55.0217 32.835C55.0286 32.019 55.1022 31.2094 55.1724 30.3977C55.4219 28.7794 55.4219 28.7794 55.1034 27.2727C55.0259 27.1708 55.0259 27.1708 54.8276 27.162C54.4619 27.167 54.2104 27.4188 53.931 27.6579C53.8286 27.7414 53.8286 27.7414 53.7241 27.8265C52.541 28.9739 51.7269 30.778 51.007 32.2997C50.981 32.3545 50.9551 32.4094 50.9284 32.4659C50.7998 32.7383 50.6721 33.0111 50.5456 33.2846C49.9205 34.6287 49.9205 34.6287 49.4353 35.0106C49.3903 35.047 49.3452 35.0835 49.2988 35.121C48.9479 35.3625 48.5349 35.3262 48.1379 35.285C47.8311 35.132 47.6612 34.9375 47.5043 34.6031C47.394 34.2772 47.3526 33.934 47.3103 33.5901C47.2628 33.6255 47.2152 33.6608 47.1662 33.6973C46.3159 34.3175 45.6504 34.6039 44.6207 34.5146C43.9025 34.3226 43.3935 33.7838 42.8965 33.2049C42.8048 33.102 42.7128 32.9993 42.6207 32.8968C42.5779 32.9434 42.5352 32.9901 42.4911 33.0382C41.0501 34.5612 39.3359 35.449 37.3405 35.4584C37.2578 35.46 37.1751 35.4616 37.0898 35.4632C36.0017 35.4685 35.0268 35.1925 34.2155 34.3461C33.2547 33.1802 33.0418 31.7012 33.0911 30.1736C33.2165 28.0992 34.2522 26.2169 35.6293 24.87C37.7771 22.963 41.3367 21.5143 43.7931 23.5747ZM36.8965 27.812C36.2133 28.7782 35.6705 30.0268 35.7931 31.2789C35.9246 31.7262 36.1079 32.1195 36.4828 32.3575C37.1881 32.7514 37.9071 32.5695 38.625 32.3093C39.4862 31.9774 40.2513 31.4635 40.8965 30.7396C40.9433 30.6886 40.9901 30.6375 41.0383 30.5849C41.4893 30.0362 41.5586 29.4889 41.6121 28.775C41.622 28.6649 41.6321 28.5548 41.6424 28.4447C41.6623 28.229 41.6811 28.0133 41.6988 27.7974C41.7204 27.5466 41.7461 27.2976 41.7759 27.0479C41.7833 26.9843 41.7907 26.9206 41.7984 26.855C41.8116 26.7429 41.8252 26.6308 41.8393 26.5189C41.8721 26.2122 41.8573 26.0046 41.7241 25.7319C41.3575 25.3538 41.0612 25.3195 40.5781 25.3253C39.117 25.4591 37.8203 26.6092 36.8965 27.812ZM73.1724 26.8105C73.1158 26.8626 73.0591 26.9147 73.0008 26.9685C72.0475 27.8782 71.2087 29.3645 71.1037 30.7968C71.103 31.281 71.2086 31.7061 71.4803 32.0875C71.7969 32.434 72.1937 32.5661 72.6288 32.5958C74.1468 32.5407 75.4203 31.6812 76.451 30.4928C76.7483 30.1153 76.8542 29.8359 76.9057 29.3342C76.9114 29.2813 76.917 29.2284 76.9229 29.1739C76.9407 29.0057 76.9575 28.8374 76.9741 28.6691C76.9858 28.5566 76.9976 28.4442 77.0094 28.3317C77.0313 28.124 77.0526 27.9161 77.0736 27.7082C77.1027 27.4339 77.1374 27.1609 77.1724 26.8875C77.2436 26.2493 77.2436 26.2493 77.0873 25.6564C75.9502 24.5842 74.0758 25.9483 73.1724 26.8105Z" fill="white"/>
<path d="M31.375 13.1211C32.0015 13.7337 32.7089 14.5986 32.7751 15.5735C32.7906 16.4304 32.7906 16.4304 32.6379 16.6939C32.5611 16.7821 32.5611 16.7821 32.4828 16.8721C32.4429 16.9197 32.4031 16.9674 32.3621 17.0165C32.1259 17.1485 31.9101 17.1478 31.6552 17.1032C31.3216 16.9618 31.0633 16.7651 30.7765 16.529C29.6812 15.6274 28.5676 15.0378 27.1724 15.1771C24.7971 15.6012 22.9886 17.4256 21.612 19.5178C21.1715 20.2015 20.7858 20.9165 20.4138 21.6486C20.3862 21.702 20.3586 21.7553 20.3301 21.8102C19.1719 24.0592 18.5154 26.5908 18.069 29.1217C18.0588 29.1788 18.0487 29.236 18.0383 29.2949C17.8286 30.5244 17.7763 31.9456 18.3798 33.0487C18.8469 33.7575 19.5229 34.084 20.2859 34.2183C21.9816 34.4655 23.5393 33.6787 24.8685 32.5648C25.9872 31.595 26.8915 30.3916 27.7241 29.1217C27.7534 29.0772 27.7826 29.0327 27.8128 28.9869C28.9882 27.2717 28.9882 27.2717 29.4483 25.2696C29.3386 25.1471 29.2267 25.1793 29.0749 25.1778C28.6942 25.1826 28.3435 25.2531 27.9741 25.3515C27.9085 25.3687 27.8428 25.3859 27.7752 25.4036C26.76 25.6798 25.7957 26.09 24.8502 26.5845C24.3923 26.8157 23.9183 26.9873 23.4267 26.8008C23.2226 26.6417 23.0665 26.4746 22.8965 26.2711C22.8046 26.1716 22.7127 26.0721 22.6207 25.9726C22.0098 25.2838 22.0098 25.2838 21.9267 24.7977C21.9319 24.438 21.9896 24.3695 22.2069 24.114C24.1671 22.5556 27.3674 21.5895 29.7624 21.9129C30.6559 22.0898 31.3869 22.563 31.9197 23.3848C32.701 24.694 32.8003 26.1246 32.5357 27.6575C32.3323 28.687 32.0546 29.6989 31.795 30.7122C31.5518 31.6643 31.3303 32.6151 31.1724 33.5901C31.1622 33.6515 31.1519 33.7129 31.1413 33.7762C31.0268 34.4818 30.9631 35.1851 30.9297 35.9007C30.9254 35.9921 30.9254 35.9921 30.921 36.0853C30.9069 36.3927 30.8945 36.7 30.8842 37.0075C30.8797 37.1213 30.8752 37.2351 30.8707 37.3489C30.8673 37.4503 30.8639 37.5518 30.8605 37.6563C30.8276 37.9044 30.8276 37.9044 30.7344 38.0499C30.4824 38.2397 30.2231 38.2517 29.931 38.2126C29.2807 38.0572 28.6851 37.8216 28.3041 37.1807C27.9533 36.441 27.9014 35.7239 27.8621 34.8998C27.7618 34.9795 27.7618 34.9795 27.6595 35.0608C25.3498 36.8777 22.5603 38.196 19.681 37.6685C18.2098 37.3566 16.9874 36.6048 15.931 35.4391C15.8634 35.3719 15.8634 35.3719 15.7944 35.3034C14.7296 34.2227 14.2203 32.5143 14.1222 30.9516C13.9847 27.5699 15.0173 24.1858 16.3448 21.1864C16.3736 21.1207 16.4024 21.055 16.4321 20.9873C17.0111 19.6767 17.7256 18.467 18.5517 17.3343C18.5822 17.2923 18.6128 17.2503 18.6442 17.207C19.4149 16.154 20.2668 15.1489 21.2414 14.3297C21.3131 14.2684 21.3849 14.2071 21.4588 14.144C24.1339 11.9052 28.4969 10.6293 31.375 13.1211Z" fill="white"/>
</svg>
