<svg width="23" height="17" viewBox="0 0 23 17" fill="none" xmlns="http://www.w3.org/2000/svg">
<rect width="1.30769" height="1.30769" transform="matrix(1 0 0 -1 6.53839 2.61523)" fill="white"/>
<rect width="1.30769" height="1.30769" transform="matrix(1 0 0 -1 5.23074 2.61523)" fill="white"/>
<rect width="1.30769" height="1.30769" transform="matrix(1 0 0 -1 3.923 3.92285)" fill="white"/>
<rect width="1.30769" height="1.30769" transform="matrix(1 0 0 -1 3.923 5.23096)" fill="white"/>
<rect width="1.30769" height="1.30769" transform="matrix(1 0 0 -1 2.61536 6.53857)" fill="white"/>
<rect width="1.30769" height="1.30769" transform="matrix(1 0 0 -1 2.61536 7.84619)" fill="white"/>
<rect width="1.30769" height="1.30769" transform="matrix(1 0 0 -1 2.61536 9.15381)" fill="white"/>
<rect width="1.30769" height="1.30769" transform="matrix(1 0 0 -1 2.61536 10.4614)" fill="white"/>
<rect width="1.30769" height="1.30769" transform="matrix(1 0 0 -1 2.61536 11.769)" fill="white"/>
<rect width="1.30769" height="1.30769" transform="matrix(1 0 0 -1 3.923 13.0771)" fill="white"/>
<rect width="1.30769" height="1.30769" transform="matrix(1 0 0 -1 3.923 14.3848)" fill="white"/>
<rect width="1.30769" height="1.30769" transform="matrix(1 0 0 -1 5.23074 15.6924)" fill="white"/>
<rect width="1.30769" height="1.30769" transform="matrix(1 0 0 -1 6.53839 15.6924)" fill="white"/>
<rect width="1.30769" height="1.30769" transform="matrix(1 0 0 -1 7.84613 17)" fill="white"/>
<rect width="1.30769" height="1.30769" transform="matrix(1 0 0 -1 9.15378 17)" fill="white"/>
<rect width="1.30769" height="1.30769" transform="matrix(1 0 0 -1 10.4614 17)" fill="white"/>
<rect width="1.30769" height="1.30769" transform="matrix(1 0 0 -1 11.7693 17)" fill="white"/>
<rect width="1.30769" height="1.30769" transform="matrix(1 0 0 -1 13.0769 17)" fill="white"/>
<rect width="1.30769" height="1.30769" transform="matrix(1 0 0 -1 14.3846 15.6924)" fill="white"/>
<rect width="1.30769" height="1.30769" transform="matrix(1 0 0 -1 15.6923 15.6924)" fill="white"/>
<rect width="1.30769" height="1.30769" transform="matrix(1 0 0 -1 17 14.3848)" fill="white"/>
<rect width="1.30769" height="1.30769" transform="matrix(1 0 0 -1 17 13.0771)" fill="white"/>
<rect width="1.30769" height="1.30769" transform="matrix(1 0 0 -1 18.3077 11.769)" fill="white"/>
<rect width="1.30769" height="1.30769" transform="matrix(1 0 0 -1 18.3077 10.4614)" fill="white"/>
<rect width="1.30769" height="1.30769" transform="matrix(1 0 0 -1 18.3077 9.15381)" fill="white"/>
<rect width="1.30769" height="1.30769" transform="matrix(1 0 0 -1 18.3077 7.84619)" fill="white"/>
<rect width="1.30769" height="1.30769" transform="matrix(1 0 0 -1 18.3077 6.53857)" fill="white"/>
<rect width="1.30769" height="1.30769" transform="matrix(1 0 0 -1 17 5.23096)" fill="white"/>
<rect width="1.30769" height="1.30769" transform="matrix(1 0 0 -1 17 3.92285)" fill="white"/>
<rect width="1.30769" height="1.30769" transform="matrix(1 0 0 -1 15.6923 2.61523)" fill="white"/>
<rect width="1.30769" height="1.30769" transform="matrix(1 0 0 -1 17 1.30762)" fill="white"/>
<rect width="1.30769" height="1.30769" transform="matrix(1 0 0 -1 18.3077 1.30762)" fill="white"/>
<rect width="1.30769" height="1.30769" transform="matrix(1 0 0 -1 19.6154 1.30762)" fill="white"/>
<rect width="1.30769" height="1.30769" transform="matrix(1 0 0 -1 20.923 2.61523)" fill="white"/>
<rect width="1.30769" height="1.30769" transform="matrix(1 0 0 -1 20.923 3.92285)" fill="white"/>
<rect width="1.30769" height="1.30769" transform="matrix(1 0 0 -1 19.6154 5.23096)" fill="white"/>
<rect width="1.30769" height="1.30769" transform="matrix(1 0 0 -1 17 7.84619)" fill="white"/>
<rect width="1.30769" height="1.30769" transform="matrix(1 0 0 -1 15.6923 9.15381)" fill="white"/>
<rect width="1.30769" height="1.30769" transform="matrix(1 0 0 -1 14.3846 10.4614)" fill="white"/>
<rect width="1.30769" height="1.30769" transform="matrix(1 0 0 -1 13.0769 11.769)" fill="white"/>
<rect width="1.30769" height="1.30769" transform="matrix(1 0 0 -1 11.7693 13.0771)" fill="white"/>
<rect width="1.30769" height="1.30769" transform="matrix(1 0 0 -1 10.4614 13.0771)" fill="white"/>
<rect width="1.30769" height="1.30769" transform="matrix(1 0 0 -1 9.15378 14.3848)" fill="white"/>
<rect width="1.30769" height="1.30769" transform="matrix(1 0 0 -1 7.84613 14.3848)" fill="white"/>
<rect width="1.30769" height="1.30769" transform="matrix(1 0 0 -1 3.923 17)" fill="white"/>
<rect width="1.30769" height="1.30769" transform="matrix(1 0 0 -1 2.61536 17)" fill="white"/>
<rect width="1.30769" height="1.30769" transform="matrix(1 0 0 -1 1.30771 17)" fill="white"/>
<rect width="1.30769" height="1.30769" transform="matrix(1 0 0 -1 -3.05176e-05 15.6924)" fill="white"/>
<rect width="1.30769" height="1.30769" transform="matrix(1 0 0 -1 -3.05176e-05 14.3848)" fill="white"/>
<rect width="1.30769" height="1.30769" transform="matrix(1 0 0 -1 1.30771 13.0771)" fill="white"/>
<rect width="1.30769" height="1.30769" transform="matrix(1 0 0 -1 14.3846 2.61523)" fill="white"/>
<rect width="1.30769" height="1.30769" transform="matrix(1 0 0 -1 13.0769 1.30762)" fill="white"/>
<rect width="1.30769" height="1.30769" transform="matrix(1 0 0 -1 11.7693 1.30762)" fill="white"/>
<rect width="1.30769" height="1.30769" transform="matrix(1 0 0 -1 10.4614 1.30762)" fill="white"/>
<rect width="1.30769" height="1.30769" transform="matrix(1 0 0 -1 9.15378 1.30762)" fill="white"/>
<rect width="1.30769" height="1.30769" transform="matrix(1 0 0 -1 7.84613 1.30762)" fill="white"/>
</svg>
